<svg xmlns="http://www.w3.org/2000/svg" width="760" height="1679" viewBox="0 0 760 1679" font-family="-apple-system, 'Segoe UI', Helvetica, Arial, 'Hiragino Sans', 'Noto Sans CJK JP', 'Yu Gothic', sans-serif" font-size="12">
<style>.t{fill:#1f2328}.m{fill:#59636e}.g{stroke:#d1d9e0}.r{stroke:#1f2328}@media (prefers-color-scheme:dark){.t{fill:#f0f6fc}.m{fill:#9198a1}.g{stroke:#3d444d}.r{stroke:#f0f6fc}}</style>
<text class="t" x="0" y="18" font-size="15" font-weight="600">Time vs native Go per kernel (Node.js v26.10.0, log scale, shorter is faster)</text>
<text class="m" x="0" y="37">Add has no native Go time and is left out</text>
<rect x="0" y="50" width="11" height="11" rx="2" fill="#8c959f"/>
<text class="t" x="16" y="60">Hand-written JS</text>
<rect x="139" y="50" width="11" height="11" rx="2" fill="#2f81f7"/>
<text class="t" x="155" y="60">goesm</text>
<rect x="208" y="50" width="11" height="11" rx="2" fill="#d29922"/>
<text class="t" x="224" y="60">GopherJS</text>
<rect x="298" y="50" width="11" height="11" rx="2" fill="#a371f7"/>
<text class="t" x="314" y="60">Go wasm</text>
<rect x="381" y="50" width="11" height="11" rx="2" fill="#3fb950"/>
<text class="t" x="397" y="60">TinyGo wasm</text>
<line class="g" x1="150.0" y1="74" x2="150.0" y2="1647"/>
<text class="m" x="150.0" y="1661" text-anchor="middle">0.20×</text>
<line class="g" x1="220.3" y1="74" x2="220.3" y2="1647"/>
<text class="m" x="220.3" y="1661" text-anchor="middle">0.50×</text>
<line class="g" x1="273.5" y1="74" x2="273.5" y2="1647"/>
<text class="m" x="273.5" y="1661" text-anchor="middle">1.00×</text>
<line class="g" x1="326.7" y1="74" x2="326.7" y2="1647"/>
<text class="m" x="326.7" y="1661" text-anchor="middle">2.00×</text>
<line class="g" x1="397.0" y1="74" x2="397.0" y2="1647"/>
<text class="m" x="397.0" y="1661" text-anchor="middle">5.00×</text>
<line class="g" x1="450.2" y1="74" x2="450.2" y2="1647"/>
<text class="m" x="450.2" y="1661" text-anchor="middle">10.0×</text>
<line class="g" x1="503.3" y1="74" x2="503.3" y2="1647"/>
<text class="m" x="503.3" y="1661" text-anchor="middle">20.0×</text>
<line class="g" x1="573.6" y1="74" x2="573.6" y2="1647"/>
<text class="m" x="573.6" y="1661" text-anchor="middle">50.0×</text>
<line class="g" x1="626.8" y1="74" x2="626.8" y2="1647"/>
<text class="m" x="626.8" y="1661" text-anchor="middle">100×</text>
<line class="g" x1="680.0" y1="74" x2="680.0" y2="1647"/>
<text class="m" x="680.0" y="1661" text-anchor="middle">200×</text>
<text class="t" x="140" y="120.5" text-anchor="end">Fib</text>
<rect x="150" y="78" width="168.3" height="13" rx="2" fill="#8c959f"><title>Hand-written JS: 7.65 ms</title></rect>
<text class="t" x="322.3" y="89" font-size="11">1.79×</text>
<rect x="150" y="94" width="167.7" height="13" rx="2" fill="#2f81f7"><title>goesm: 7.58 ms</title></rect>
<text class="t" x="321.7" y="105" font-size="11">1.78×</text>
<rect x="150" y="110" width="166.2" height="13" rx="2" fill="#d29922"><title>GopherJS: 7.44 ms</title></rect>
<text class="t" x="320.2" y="121" font-size="11">1.75×</text>
<rect x="150" y="126" width="198.3" height="13" rx="2" fill="#a371f7"><title>Go wasm: 11.3 ms</title></rect>
<text class="t" x="352.3" y="137" font-size="11">2.65×</text>
<rect x="150" y="142" width="116.4" height="13" rx="2" fill="#3fb950"><title>TinyGo wasm: 3.89 ms</title></rect>
<text class="t" x="270.4" y="153" font-size="11">0.91×</text>
<text class="t" x="140" y="213.5" text-anchor="end">Sieve</text>
<rect x="150" y="171" width="134.0" height="13" rx="2" fill="#8c959f"><title>Hand-written JS: 9.58 ms</title></rect>
<text class="t" x="288.0" y="182" font-size="11">1.15×</text>
<rect x="150" y="187" width="133.7" height="13" rx="2" fill="#2f81f7"><title>goesm: 9.54 ms</title></rect>
<text class="t" x="287.7" y="198" font-size="11">1.14×</text>
<rect x="150" y="203" width="271.2" height="13" rx="2" fill="#d29922"><title>GopherJS: 57.2 ms</title></rect>
<text class="t" x="425.2" y="214" font-size="11">6.85×</text>
<rect x="150" y="219" width="144.1" height="13" rx="2" fill="#a371f7"><title>Go wasm: 10.9 ms</title></rect>
<text class="t" x="298.1" y="230" font-size="11">1.31×</text>
<rect x="150" y="235" width="131.1" height="13" rx="2" fill="#3fb950"><title>TinyGo wasm: 9.23 ms</title></rect>
<text class="t" x="285.1" y="246" font-size="11">1.10×</text>
<text class="t" x="140" y="306.5" text-anchor="end">Mandelbrot</text>
<rect x="150" y="264" width="122.6" height="13" rx="2" fill="#8c959f"><title>Hand-written JS: 11.3 ms</title></rect>
<text class="t" x="276.6" y="275" font-size="11">0.99×</text>
<rect x="150" y="280" width="123.1" height="13" rx="2" fill="#2f81f7"><title>goesm: 11.3 ms</title></rect>
<text class="t" x="277.1" y="291" font-size="11">0.99×</text>
<rect x="150" y="296" width="123.2" height="13" rx="2" fill="#d29922"><title>GopherJS: 11.4 ms</title></rect>
<text class="t" x="277.2" y="307" font-size="11">1.0×</text>
<rect x="150" y="312" width="123.5" height="13" rx="2" fill="#a371f7"><title>Go wasm: 11.4 ms</title></rect>
<text class="t" x="277.5" y="323" font-size="11">1.00×</text>
<rect x="150" y="328" width="114.2" height="13" rx="2" fill="#3fb950"><title>TinyGo wasm: 10.1 ms</title></rect>
<text class="t" x="268.2" y="339" font-size="11">0.89×</text>
<text class="t" x="140" y="399.5" text-anchor="end">NBody</text>
<rect x="150" y="357" width="114.3" height="13" rx="2" fill="#8c959f"><title>Hand-written JS: 7.26 ms</title></rect>
<text class="t" x="268.3" y="368" font-size="11">0.89×</text>
<rect x="150" y="373" width="130.5" height="13" rx="2" fill="#2f81f7"><title>goesm: 8.96 ms</title></rect>
<text class="t" x="284.5" y="384" font-size="11">1.10×</text>
<rect x="150" y="389" width="457.9" height="13" rx="2" fill="#d29922"><title>GopherJS: 640 ms</title></rect>
<text class="t" x="611.9" y="400" font-size="11">78.2×</text>
<rect x="150" y="405" width="127.7" height="13" rx="2" fill="#a371f7"><title>Go wasm: 8.65 ms</title></rect>
<text class="t" x="281.7" y="416" font-size="11">1.06×</text>
<rect x="150" y="421" width="102.3" height="13" rx="2" fill="#3fb950"><title>TinyGo wasm: 6.21 ms</title></rect>
<text class="t" x="256.3" y="432" font-size="11">0.76×</text>
<text class="t" x="140" y="492.5" text-anchor="end">FNV32</text>
<rect x="150" y="450" width="123.7" height="13" rx="2" fill="#8c959f"><title>Hand-written JS: 11.4 ms</title></rect>
<text class="t" x="277.7" y="461" font-size="11">1.00×</text>
<rect x="150" y="466" width="118.7" height="13" rx="2" fill="#2f81f7"><title>goesm: 10.7 ms</title></rect>
<text class="t" x="272.7" y="477" font-size="11">0.94×</text>
<rect x="150" y="482" width="151.1" height="13" rx="2" fill="#d29922"><title>GopherJS: 16.3 ms</title></rect>
<text class="t" x="305.1" y="493" font-size="11">1.43×</text>
<rect x="150" y="498" width="124.1" height="13" rx="2" fill="#a371f7"><title>Go wasm: 11.4 ms</title></rect>
<text class="t" x="278.1" y="509" font-size="11">1.01×</text>
<rect x="150" y="514" width="120.8" height="13" rx="2" fill="#3fb950"><title>TinyGo wasm: 11.0 ms</title></rect>
<text class="t" x="274.8" y="525" font-size="11">0.97×</text>
<text class="t" x="140" y="585.5" text-anchor="end">FNV64</text>
<rect x="150" y="543" width="224.9" height="13" rx="2" fill="#8c959f"><title>Hand-written JS: 42.0 ms</title></rect>
<text class="t" x="378.9" y="554" font-size="11">3.75×</text>
<rect x="150" y="559" width="140.2" height="13" rx="2" fill="#2f81f7"><title>goesm: 13.9 ms</title></rect>
<text class="t" x="294.2" y="570" font-size="11">1.24×</text>
<rect x="150" y="575" width="373.1" height="13" rx="2" fill="#d29922"><title>GopherJS: 290 ms</title></rect>
<text class="t" x="527.1" y="586" font-size="11">25.9×</text>
<rect x="150" y="591" width="137.7" height="13" rx="2" fill="#a371f7"><title>Go wasm: 13.5 ms</title></rect>
<text class="t" x="291.7" y="602" font-size="11">1.20×</text>
<rect x="150" y="607" width="120.7" height="13" rx="2" fill="#3fb950"><title>TinyGo wasm: 10.8 ms</title></rect>
<text class="t" x="274.7" y="618" font-size="11">0.96×</text>
<text class="t" x="140" y="678.5" text-anchor="end">BinaryTrees</text>
<rect x="150" y="636" width="100.4" height="13" rx="2" fill="#8c959f"><title>Hand-written JS: 43.5 ms</title></rect>
<text class="t" x="254.4" y="647" font-size="11">0.74×</text>
<rect x="150" y="652" width="113.1" height="13" rx="2" fill="#2f81f7"><title>goesm: 51.4 ms</title></rect>
<text class="t" x="267.1" y="663" font-size="11">0.87×</text>
<rect x="150" y="668" width="125.2" height="13" rx="2" fill="#d29922"><title>GopherJS: 60.1 ms</title></rect>
<text class="t" x="279.2" y="679" font-size="11">1.02×</text>
<rect x="150" y="684" width="224.3" height="13" rx="2" fill="#a371f7"><title>Go wasm: 219 ms</title></rect>
<text class="t" x="378.3" y="695" font-size="11">3.72×</text>
<rect x="150" y="700" width="161.8" height="13" rx="2" fill="#3fb950"><title>TinyGo wasm: 96.9 ms</title></rect>
<text class="t" x="315.8" y="711" font-size="11">1.65×</text>
<text class="t" x="140" y="771.5" text-anchor="end">Interfaces</text>
<rect x="150" y="729" width="101.6" height="13" rx="2" fill="#8c959f"><title>Hand-written JS: 13.8 ms</title></rect>
<text class="t" x="255.6" y="740" font-size="11">0.75×</text>
<rect x="150" y="745" width="129.8" height="13" rx="2" fill="#2f81f7"><title>goesm: 20.0 ms</title></rect>
<text class="t" x="283.8" y="756" font-size="11">1.09×</text>
<rect x="150" y="761" width="176.9" height="13" rx="2" fill="#d29922"><title>GopherJS: 36.9 ms</title></rect>
<text class="t" x="330.9" y="772" font-size="11">2.01×</text>
<rect x="150" y="777" width="226.7" height="13" rx="2" fill="#a371f7"><title>Go wasm: 70.7 ms</title></rect>
<text class="t" x="380.7" y="788" font-size="11">3.84×</text>
<rect x="150" y="793" width="145.5" height="13" rx="2" fill="#3fb950"><title>TinyGo wasm: 24.6 ms</title></rect>
<text class="t" x="299.5" y="804" font-size="11">1.33×</text>
<text class="t" x="140" y="864.5" text-anchor="end">MapInt</text>
<rect x="150" y="822" width="126.5" height="13" rx="2" fill="#8c959f"><title>Hand-written JS: 27.4 ms</title></rect>
<text class="t" x="280.5" y="833" font-size="11">1.04×</text>
<rect x="150" y="838" width="127.5" height="13" rx="2" fill="#2f81f7"><title>goesm: 27.8 ms</title></rect>
<text class="t" x="281.5" y="849" font-size="11">1.05×</text>
<rect x="150" y="854" width="164.7" height="13" rx="2" fill="#d29922"><title>GopherJS: 45.1 ms</title></rect>
<text class="t" x="318.7" y="865" font-size="11">1.71×</text>
<rect x="150" y="870" width="176.5" height="13" rx="2" fill="#a371f7"><title>Go wasm: 52.6 ms</title></rect>
<text class="t" x="330.5" y="881" font-size="11">1.99×</text>
<rect x="150" y="886" width="221.8" height="13" rx="2" fill="#3fb950"><title>TinyGo wasm: 94.8 ms</title></rect>
<text class="t" x="375.8" y="897" font-size="11">3.60×</text>
<text class="t" x="140" y="957.5" text-anchor="end">MapString</text>
<rect x="150" y="915" width="213.2" height="13" rx="2" fill="#8c959f"><title>Hand-written JS: 23.1 ms</title></rect>
<text class="t" x="367.2" y="926" font-size="11">3.22×</text>
<rect x="150" y="931" width="192.6" height="13" rx="2" fill="#2f81f7"><title>goesm: 17.7 ms</title></rect>
<text class="t" x="346.6" y="942" font-size="11">2.46×</text>
<rect x="150" y="947" width="337.7" height="13" rx="2" fill="#d29922"><title>GopherJS: 117 ms</title></rect>
<text class="t" x="491.7" y="958" font-size="11">16.3×</text>
<rect x="150" y="963" width="205.7" height="13" rx="2" fill="#a371f7"><title>Go wasm: 20.9 ms</title></rect>
<text class="t" x="359.7" y="974" font-size="11">2.92×</text>
<rect x="150" y="979" width="287.6" height="13" rx="2" fill="#3fb950"><title>TinyGo wasm: 60.9 ms</title></rect>
<text class="t" x="441.6" y="990" font-size="11">8.49×</text>
<text class="t" x="140" y="1050.5" text-anchor="end">Strings</text>
<rect x="150" y="1008" width="149.8" height="13" rx="2" fill="#8c959f"><title>Hand-written JS: 10.8 ms</title></rect>
<text class="t" x="303.8" y="1019" font-size="11">1.41×</text>
<rect x="150" y="1024" width="166.8" height="13" rx="2" fill="#2f81f7"><title>goesm: 13.5 ms</title></rect>
<text class="t" x="320.8" y="1035" font-size="11">1.76×</text>
<rect x="150" y="1040" width="433.0" height="13" rx="2" fill="#d29922"><title>GopherJS: 435 ms</title></rect>
<text class="t" x="587.0" y="1051" font-size="11">56.5×</text>
<rect x="150" y="1056" width="217.3" height="13" rx="2" fill="#a371f7"><title>Go wasm: 26.1 ms</title></rect>
<text class="t" x="371.3" y="1067" font-size="11">3.40×</text>
<rect x="150" y="1072" width="151.0" height="13" rx="2" fill="#3fb950"><title>TinyGo wasm: 11.0 ms</title></rect>
<text class="t" x="305.0" y="1083" font-size="11">1.43×</text>
<text class="t" x="140" y="1143.5" text-anchor="end">Sort</text>
<rect x="150" y="1101" width="156.4" height="13" rx="2" fill="#8c959f"><title>Hand-written JS: 44.7 ms</title></rect>
<text class="t" x="310.4" y="1112" font-size="11">1.54×</text>
<rect x="150" y="1117" width="167.9" height="13" rx="2" fill="#2f81f7"><title>goesm: 52.0 ms</title></rect>
<text class="t" x="321.9" y="1128" font-size="11">1.78×</text>
<rect x="150" y="1133" width="243.4" height="13" rx="2" fill="#d29922"><title>GopherJS: 139 ms</title></rect>
<text class="t" x="397.4" y="1144" font-size="11">4.77×</text>
<rect x="150" y="1149" width="213.6" height="13" rx="2" fill="#a371f7"><title>Go wasm: 94.3 ms</title></rect>
<text class="t" x="367.6" y="1160" font-size="11">3.24×</text>
<rect x="150" y="1165" width="148.7" height="13" rx="2" fill="#3fb950"><title>TinyGo wasm: 40.5 ms</title></rect>
<text class="t" x="302.7" y="1176" font-size="11">1.39×</text>
<text class="t" x="140" y="1236.5" text-anchor="end">JSON</text>
<rect x="150" y="1194" width="47.8" height="13" rx="2" fill="#8c959f"><title>Hand-written JS: 2.44 ms</title></rect>
<text class="t" x="201.8" y="1205" font-size="11">0.37×</text>
<rect x="150" y="1210" width="86.2" height="13" rx="2" fill="#2f81f7"><title>goesm: 4.03 ms</title></rect>
<text class="t" x="240.2" y="1221" font-size="11">0.61×</text>
<rect x="150" y="1226" width="449.0" height="13" rx="2" fill="#d29922"><title>GopherJS: 456 ms</title></rect>
<text class="t" x="603.0" y="1237" font-size="11">69.6×</text>
<rect x="150" y="1242" width="209.2" height="13" rx="2" fill="#a371f7"><title>Go wasm: 20.0 ms</title></rect>
<text class="t" x="363.2" y="1253" font-size="11">3.06×</text>
<rect x="150" y="1258" width="211.6" height="13" rx="2" fill="#3fb950"><title>TinyGo wasm: 20.7 ms</title></rect>
<text class="t" x="365.6" y="1269" font-size="11">3.15×</text>
<text class="t" x="140" y="1329.5" text-anchor="end">Sprintf</text>
<rect x="150" y="1287" width="59.1" height="13" rx="2" fill="#8c959f"><title>Hand-written JS: 5.47 ms</title></rect>
<text class="t" x="213.1" y="1298" font-size="11">0.43×</text>
<rect x="150" y="1303" width="60.4" height="13" rx="2" fill="#2f81f7"><title>goesm: 5.57 ms</title></rect>
<text class="t" x="214.4" y="1314" font-size="11">0.44×</text>
<rect x="150" y="1319" width="477.4" height="13" rx="2" fill="#d29922"><title>GopherJS: 1276 ms</title></rect>
<text class="t" x="631.4" y="1330" font-size="11">101×</text>
<rect x="150" y="1335" width="234.5" height="13" rx="2" fill="#a371f7"><title>Go wasm: 53.8 ms</title></rect>
<text class="t" x="388.5" y="1346" font-size="11">4.25×</text>
<rect x="150" y="1351" width="193.2" height="13" rx="2" fill="#3fb950"><title>TinyGo wasm: 31.5 ms</title></rect>
<text class="t" x="347.2" y="1362" font-size="11">2.48×</text>
<text class="t" x="140" y="1422.5" text-anchor="end">Channels</text>
<text class="m" x="154" y="1391" font-size="11">—</text>
<rect x="150" y="1396" width="140.4" height="13" rx="2" fill="#2f81f7"><title>goesm: 99.9 ms</title></rect>
<text class="t" x="294.4" y="1407" font-size="11">1.25×</text>
<rect x="150" y="1412" width="209.4" height="13" rx="2" fill="#d29922"><title>GopherJS: 246 ms</title></rect>
<text class="t" x="363.4" y="1423" font-size="11">3.06×</text>
<rect x="150" y="1428" width="195.6" height="13" rx="2" fill="#a371f7"><title>Go wasm: 205 ms</title></rect>
<text class="t" x="349.6" y="1439" font-size="11">2.56×</text>
<rect x="150" y="1444" width="13.3" height="13" rx="2" fill="#3fb950"><title>TinyGo wasm: 19.1 ms</title></rect>
<text class="t" x="167.3" y="1455" font-size="11">0.24×</text>
<text class="t" x="140" y="1515.5" text-anchor="end">Upper</text>
<rect x="150" y="1473" width="42.7" height="13" rx="2" fill="#8c959f"><title>Hand-written JS: 46.5 ns</title></rect>
<text class="t" x="196.7" y="1484" font-size="11">0.35×</text>
<rect x="150" y="1489" width="104.4" height="13" rx="2" fill="#2f81f7"><title>goesm: 104 ns</title></rect>
<text class="t" x="258.4" y="1500" font-size="11">0.78×</text>
<rect x="150" y="1505" width="470.1" height="13" rx="2" fill="#d29922"><title>GopherJS: 12208 ns</title></rect>
<text class="t" x="624.1" y="1516" font-size="11">91.7×</text>
<rect x="150" y="1521" width="267.4" height="13" rx="2" fill="#a371f7"><title>Go wasm: 869 ns</title></rect>
<text class="t" x="421.4" y="1532" font-size="11">6.53×</text>
<rect x="150" y="1537" width="254.0" height="13" rx="2" fill="#3fb950"><title>TinyGo wasm: 730 ns</title></rect>
<text class="t" x="408.0" y="1548" font-size="11">5.48×</text>
<text class="t" x="140" y="1608.5" text-anchor="end">Handle</text>
<rect x="150" y="1566" width="58.3" height="13" rx="2" fill="#8c959f"><title>Hand-written JS: 1253 ns</title></rect>
<text class="t" x="212.3" y="1577" font-size="11">0.43×</text>
<rect x="150" y="1582" width="90.2" height="13" rx="2" fill="#2f81f7"><title>goesm: 1898 ns</title></rect>
<text class="t" x="244.2" y="1593" font-size="11">0.65×</text>
<rect x="150" y="1598" width="477.9" height="13" rx="2" fill="#d29922"><title>GopherJS: 297124 ns</title></rect>
<text class="t" x="631.9" y="1609" font-size="11">101×</text>
<rect x="150" y="1614" width="245.4" height="13" rx="2" fill="#a371f7"><title>Go wasm: 14346 ns</title></rect>
<text class="t" x="399.4" y="1625" font-size="11">4.90×</text>
<rect x="150" y="1630" width="228.1" height="13" rx="2" fill="#3fb950"><title>TinyGo wasm: 11449 ns</title></rect>
<text class="t" x="382.1" y="1641" font-size="11">3.91×</text>
<line class="r" x1="273.5" y1="72" x2="273.5" y2="1647" stroke-dasharray="4 3" stroke-width="1.2"/>
<text class="t" x="273.5" y="1675" text-anchor="middle" font-size="11">native Go</text>
</svg>
