<svg xmlns="http://www.w3.org/2000/svg" width="760" height="2144" viewBox="0 0 760 2144" font-family="-apple-system, 'Segoe UI', Helvetica, Arial, 'Hiragino Sans', 'Noto Sans CJK JP', 'Yu Gothic', sans-serif" font-size="12">
<style>.t{fill:#1f2328}.m{fill:#59636e}.g{stroke:#d1d9e0}.r{stroke:#1f2328}@media (prefers-color-scheme:dark){.t{fill:#f0f6fc}.m{fill:#9198a1}.g{stroke:#3d444d}.r{stroke:#f0f6fc}}</style>
<text class="t" x="0" y="18" font-size="15" font-weight="600">Time vs native Go per kernel (Node.js v26.10.0, log scale, shorter is faster)</text>
<text class="m" x="0" y="37">Add has no native Go time and is left out</text>
<rect x="0" y="50" width="11" height="11" rx="2" fill="#8c959f"/>
<text class="t" x="16" y="60">Hand-written JS</text>
<rect x="139" y="50" width="11" height="11" rx="2" fill="#2f81f7"/>
<text class="t" x="155" y="60">goesm</text>
<rect x="208" y="50" width="11" height="11" rx="2" fill="#d29922"/>
<text class="t" x="224" y="60">GopherJS</text>
<rect x="298" y="50" width="11" height="11" rx="2" fill="#a371f7"/>
<text class="t" x="314" y="60">Go wasm</text>
<rect x="381" y="50" width="11" height="11" rx="2" fill="#3fb950"/>
<text class="t" x="397" y="60">TinyGo wasm</text>
<line class="g" x1="150.0" y1="74" x2="150.0" y2="2112"/>
<text class="m" x="150.0" y="2126" text-anchor="middle">0.20×</text>
<line class="g" x1="212.1" y1="74" x2="212.1" y2="2112"/>
<text class="m" x="212.1" y="2126" text-anchor="middle">0.50×</text>
<line class="g" x1="259.0" y1="74" x2="259.0" y2="2112"/>
<text class="m" x="259.0" y="2126" text-anchor="middle">1.00×</text>
<line class="g" x1="306.0" y1="74" x2="306.0" y2="2112"/>
<text class="m" x="306.0" y="2126" text-anchor="middle">2.00×</text>
<line class="g" x1="368.0" y1="74" x2="368.0" y2="2112"/>
<text class="m" x="368.0" y="2126" text-anchor="middle">5.00×</text>
<line class="g" x1="415.0" y1="74" x2="415.0" y2="2112"/>
<text class="m" x="415.0" y="2126" text-anchor="middle">10.0×</text>
<line class="g" x1="462.0" y1="74" x2="462.0" y2="2112"/>
<text class="m" x="462.0" y="2126" text-anchor="middle">20.0×</text>
<line class="g" x1="524.0" y1="74" x2="524.0" y2="2112"/>
<text class="m" x="524.0" y="2126" text-anchor="middle">50.0×</text>
<line class="g" x1="571.0" y1="74" x2="571.0" y2="2112"/>
<text class="m" x="571.0" y="2126" text-anchor="middle">100×</text>
<line class="g" x1="617.9" y1="74" x2="617.9" y2="2112"/>
<text class="m" x="617.9" y="2126" text-anchor="middle">200×</text>
<line class="g" x1="680.0" y1="74" x2="680.0" y2="2112"/>
<text class="m" x="680.0" y="2126" text-anchor="middle">500×</text>
<text class="t" x="140" y="120.5" text-anchor="end">Fib</text>
<rect x="150" y="78" width="173.7" height="13" rx="2" fill="#8c959f"><title>Hand-written JS: 12.5 ms</title></rect>
<text class="t" x="327.7" y="89" font-size="11">2.60×</text>
<rect x="150" y="94" width="177.1" height="13" rx="2" fill="#2f81f7"><title>goesm: 13.1 ms</title></rect>
<text class="t" x="331.1" y="105" font-size="11">2.73×</text>
<rect x="150" y="110" width="177.0" height="13" rx="2" fill="#d29922"><title>GopherJS: 13.1 ms</title></rect>
<text class="t" x="331.0" y="121" font-size="11">2.73×</text>
<rect x="150" y="126" width="199.5" height="13" rx="2" fill="#a371f7"><title>Go wasm: 18.3 ms</title></rect>
<text class="t" x="353.5" y="137" font-size="11">3.80×</text>
<rect x="150" y="142" width="117.4" height="13" rx="2" fill="#3fb950"><title>TinyGo wasm: 5.43 ms</title></rect>
<text class="t" x="271.4" y="153" font-size="11">1.13×</text>
<text class="t" x="140" y="213.5" text-anchor="end">Sieve</text>
<rect x="150" y="171" width="125.2" height="13" rx="2" fill="#8c959f"><title>Hand-written JS: 13.7 ms</title></rect>
<text class="t" x="279.2" y="182" font-size="11">1.27×</text>
<rect x="150" y="187" width="141.7" height="13" rx="2" fill="#2f81f7"><title>goesm: 17.5 ms</title></rect>
<text class="t" x="295.7" y="198" font-size="11">1.62×</text>
<rect x="150" y="203" width="269.1" height="13" rx="2" fill="#d29922"><title>GopherJS: 115 ms</title></rect>
<text class="t" x="423.1" y="214" font-size="11">10.6×</text>
<rect x="150" y="219" width="145.7" height="13" rx="2" fill="#a371f7"><title>Go wasm: 18.5 ms</title></rect>
<text class="t" x="299.7" y="230" font-size="11">1.72×</text>
<rect x="150" y="235" width="119.6" height="13" rx="2" fill="#3fb950"><title>TinyGo wasm: 12.6 ms</title></rect>
<text class="t" x="273.6" y="246" font-size="11">1.17×</text>
<text class="t" x="140" y="306.5" text-anchor="end">Mandelbrot</text>
<rect x="150" y="264" width="107.7" height="13" rx="2" fill="#8c959f"><title>Hand-written JS: 16.1 ms</title></rect>
<text class="t" x="261.7" y="275" font-size="11">0.98×</text>
<rect x="150" y="280" width="107.1" height="13" rx="2" fill="#2f81f7"><title>goesm: 16.0 ms</title></rect>
<text class="t" x="261.1" y="291" font-size="11">0.97×</text>
<rect x="150" y="296" width="107.0" height="13" rx="2" fill="#d29922"><title>GopherJS: 16.0 ms</title></rect>
<text class="t" x="261.0" y="307" font-size="11">0.97×</text>
<rect x="150" y="312" width="109.6" height="13" rx="2" fill="#a371f7"><title>Go wasm: 16.6 ms</title></rect>
<text class="t" x="263.6" y="323" font-size="11">1.01×</text>
<rect x="150" y="328" width="102.8" height="13" rx="2" fill="#3fb950"><title>TinyGo wasm: 15.0 ms</title></rect>
<text class="t" x="256.8" y="339" font-size="11">0.91×</text>
<text class="t" x="140" y="399.5" text-anchor="end">NBody</text>
<rect x="150" y="357" width="129.7" height="13" rx="2" fill="#8c959f"><title>Hand-written JS: 15.1 ms</title></rect>
<text class="t" x="283.7" y="368" font-size="11">1.36×</text>
<rect x="150" y="373" width="143.8" height="13" rx="2" fill="#2f81f7"><title>goesm: 18.6 ms</title></rect>
<text class="t" x="297.8" y="384" font-size="11">1.67×</text>
<rect x="150" y="389" width="426.5" height="13" rx="2" fill="#d29922"><title>GopherJS: 1210 ms</title></rect>
<text class="t" x="580.5" y="400" font-size="11">109×</text>
<rect x="150" y="405" width="129.7" height="13" rx="2" fill="#a371f7"><title>Go wasm: 15.1 ms</title></rect>
<text class="t" x="283.7" y="416" font-size="11">1.36×</text>
<rect x="150" y="421" width="113.0" height="13" rx="2" fill="#3fb950"><title>TinyGo wasm: 11.8 ms</title></rect>
<text class="t" x="267.0" y="432" font-size="11">1.06×</text>
<text class="t" x="140" y="492.5" text-anchor="end">FNV32</text>
<rect x="150" y="450" width="108.5" height="13" rx="2" fill="#8c959f"><title>Hand-written JS: 11.9 ms</title></rect>
<text class="t" x="262.5" y="461" font-size="11">0.99×</text>
<rect x="150" y="466" width="109.1" height="13" rx="2" fill="#2f81f7"><title>goesm: 12.0 ms</title></rect>
<text class="t" x="263.1" y="477" font-size="11">1.00×</text>
<rect x="150" y="482" width="168.2" height="13" rx="2" fill="#d29922"><title>GopherJS: 28.8 ms</title></rect>
<text class="t" x="322.2" y="493" font-size="11">2.40×</text>
<rect x="150" y="498" width="151.6" height="13" rx="2" fill="#a371f7"><title>Go wasm: 22.5 ms</title></rect>
<text class="t" x="305.6" y="509" font-size="11">1.88×</text>
<rect x="150" y="514" width="105.3" height="13" rx="2" fill="#3fb950"><title>TinyGo wasm: 11.4 ms</title></rect>
<text class="t" x="259.3" y="525" font-size="11">0.95×</text>
<text class="t" x="140" y="585.5" text-anchor="end">FNV64</text>
<rect x="150" y="543" width="218.4" height="13" rx="2" fill="#8c959f"><title>Hand-written JS: 57.6 ms</title></rect>
<text class="t" x="372.4" y="554" font-size="11">5.03×</text>
<rect x="150" y="559" width="151.5" height="13" rx="2" fill="#2f81f7"><title>goesm: 21.4 ms</title></rect>
<text class="t" x="305.5" y="570" font-size="11">1.87×</text>
<rect x="150" y="575" width="358.7" height="13" rx="2" fill="#d29922"><title>GopherJS: 457 ms</title></rect>
<text class="t" x="512.7" y="586" font-size="11">39.9×</text>
<rect x="150" y="591" width="158.1" height="13" rx="2" fill="#a371f7"><title>Go wasm: 23.6 ms</title></rect>
<text class="t" x="312.1" y="602" font-size="11">2.06×</text>
<rect x="150" y="607" width="107.4" height="13" rx="2" fill="#3fb950"><title>TinyGo wasm: 11.2 ms</title></rect>
<text class="t" x="261.4" y="618" font-size="11">0.98×</text>
<text class="t" x="140" y="678.5" text-anchor="end">BinaryTrees</text>
<rect x="150" y="636" width="79.4" height="13" rx="2" fill="#8c959f"><title>Hand-written JS: 58.3 ms</title></rect>
<text class="t" x="233.4" y="647" font-size="11">0.65×</text>
<rect x="150" y="652" width="97.5" height="13" rx="2" fill="#2f81f7"><title>goesm: 76.1 ms</title></rect>
<text class="t" x="251.5" y="663" font-size="11">0.84×</text>
<rect x="150" y="668" width="110.3" height="13" rx="2" fill="#d29922"><title>GopherJS: 91.9 ms</title></rect>
<text class="t" x="264.3" y="679" font-size="11">1.02×</text>
<rect x="150" y="684" width="211.0" height="13" rx="2" fill="#a371f7"><title>Go wasm: 407 ms</title></rect>
<text class="t" x="365.0" y="695" font-size="11">4.51×</text>
<rect x="150" y="700" width="166.2" height="13" rx="2" fill="#3fb950"><title>TinyGo wasm: 210 ms</title></rect>
<text class="t" x="320.2" y="711" font-size="11">2.33×</text>
<text class="t" x="140" y="771.5" text-anchor="end">Interfaces</text>
<rect x="150" y="729" width="37.7" height="13" rx="2" fill="#8c959f"><title>Hand-written JS: 15.1 ms</title></rect>
<text class="t" x="191.7" y="740" font-size="11">0.35×</text>
<rect x="150" y="745" width="88.4" height="13" rx="2" fill="#2f81f7"><title>goesm: 31.8 ms</title></rect>
<text class="t" x="242.4" y="756" font-size="11">0.74×</text>
<rect x="150" y="761" width="127.6" height="13" rx="2" fill="#d29922"><title>GopherJS: 56.8 ms</title></rect>
<text class="t" x="281.6" y="772" font-size="11">1.32×</text>
<rect x="150" y="777" width="179.0" height="13" rx="2" fill="#a371f7"><title>Go wasm: 121 ms</title></rect>
<text class="t" x="333.0" y="788" font-size="11">2.81×</text>
<rect x="150" y="793" width="107.7" height="13" rx="2" fill="#3fb950"><title>TinyGo wasm: 42.3 ms</title></rect>
<text class="t" x="261.7" y="804" font-size="11">0.98×</text>
<text class="t" x="140" y="864.5" text-anchor="end">MapInt</text>
<rect x="150" y="822" width="83.0" height="13" rx="2" fill="#8c959f"><title>Hand-written JS: 43.6 ms</title></rect>
<text class="t" x="237.0" y="833" font-size="11">0.68×</text>
<rect x="150" y="838" width="124.8" height="13" rx="2" fill="#2f81f7"><title>goesm: 80.7 ms</title></rect>
<text class="t" x="278.8" y="849" font-size="11">1.26×</text>
<rect x="150" y="854" width="123.5" height="13" rx="2" fill="#d29922"><title>GopherJS: 79.2 ms</title></rect>
<text class="t" x="277.5" y="865" font-size="11">1.24×</text>
<rect x="150" y="870" width="157.7" height="13" rx="2" fill="#a371f7"><title>Go wasm: 131 ms</title></rect>
<text class="t" x="311.7" y="881" font-size="11">2.05×</text>
<rect x="150" y="886" width="180.7" height="13" rx="2" fill="#3fb950"><title>TinyGo wasm: 184 ms</title></rect>
<text class="t" x="334.7" y="897" font-size="11">2.88×</text>
<text class="t" x="140" y="957.5" text-anchor="end">MapString</text>
<rect x="150" y="915" width="165.3" height="13" rx="2" fill="#8c959f"><title>Hand-written JS: 28.7 ms</title></rect>
<text class="t" x="319.3" y="926" font-size="11">2.29×</text>
<rect x="150" y="931" width="154.3" height="13" rx="2" fill="#2f81f7"><title>goesm: 24.4 ms</title></rect>
<text class="t" x="308.3" y="942" font-size="11">1.95×</text>
<rect x="150" y="947" width="297.2" height="13" rx="2" fill="#d29922"><title>GopherJS: 201 ms</title></rect>
<text class="t" x="451.2" y="958" font-size="11">16.1×</text>
<rect x="150" y="963" width="183.1" height="13" rx="2" fill="#a371f7"><title>Go wasm: 37.3 ms</title></rect>
<text class="t" x="337.1" y="974" font-size="11">2.98×</text>
<rect x="150" y="979" width="238.7" height="13" rx="2" fill="#3fb950"><title>TinyGo wasm: 84.9 ms</title></rect>
<text class="t" x="392.7" y="990" font-size="11">6.79×</text>
<text class="t" x="140" y="1050.5" text-anchor="end">Strings</text>
<rect x="150" y="1008" width="142.4" height="13" rx="2" fill="#8c959f"><title>Hand-written JS: 19.9 ms</title></rect>
<text class="t" x="296.4" y="1019" font-size="11">1.64×</text>
<rect x="150" y="1024" width="148.6" height="13" rx="2" fill="#2f81f7"><title>goesm: 21.8 ms</title></rect>
<text class="t" x="302.6" y="1035" font-size="11">1.79×</text>
<rect x="150" y="1040" width="392.8" height="13" rx="2" fill="#d29922"><title>GopherJS: 803 ms</title></rect>
<text class="t" x="546.8" y="1051" font-size="11">66.0×</text>
<rect x="150" y="1056" width="194.3" height="13" rx="2" fill="#a371f7"><title>Go wasm: 42.8 ms</title></rect>
<text class="t" x="348.3" y="1067" font-size="11">3.52×</text>
<rect x="150" y="1072" width="134.9" height="13" rx="2" fill="#3fb950"><title>TinyGo wasm: 17.8 ms</title></rect>
<text class="t" x="288.9" y="1083" font-size="11">1.47×</text>
<text class="t" x="140" y="1143.5" text-anchor="end">Sort</text>
<rect x="150" y="1101" width="145.6" height="13" rx="2" fill="#8c959f"><title>Hand-written JS: 70.0 ms</title></rect>
<text class="t" x="299.6" y="1112" font-size="11">1.72×</text>
<rect x="150" y="1117" width="146.4" height="13" rx="2" fill="#2f81f7"><title>goesm: 70.8 ms</title></rect>
<text class="t" x="300.4" y="1128" font-size="11">1.74×</text>
<rect x="150" y="1133" width="224.6" height="13" rx="2" fill="#d29922"><title>GopherJS: 225 ms</title></rect>
<text class="t" x="378.6" y="1144" font-size="11">5.51×</text>
<rect x="150" y="1149" width="193.6" height="13" rx="2" fill="#a371f7"><title>Go wasm: 142 ms</title></rect>
<text class="t" x="347.6" y="1160" font-size="11">3.48×</text>
<rect x="150" y="1165" width="127.2" height="13" rx="2" fill="#3fb950"><title>TinyGo wasm: 53.4 ms</title></rect>
<text class="t" x="281.2" y="1176" font-size="11">1.31×</text>
<text class="t" x="140" y="1236.5" text-anchor="end">JSON</text>
<rect x="150" y="1194" width="44.4" height="13" rx="2" fill="#8c959f"><title>Hand-written JS: 5.11 ms</title></rect>
<text class="t" x="198.4" y="1205" font-size="11">0.39×</text>
<rect x="150" y="1210" width="55.1" height="13" rx="2" fill="#2f81f7"><title>goesm: 5.98 ms</title></rect>
<text class="t" x="209.1" y="1221" font-size="11">0.45×</text>
<rect x="150" y="1226" width="394.7" height="13" rx="2" fill="#d29922"><title>GopherJS: 900 ms</title></rect>
<text class="t" x="548.7" y="1237" font-size="11">67.9×</text>
<rect x="150" y="1242" width="176.3" height="13" rx="2" fill="#a371f7"><title>Go wasm: 35.8 ms</title></rect>
<text class="t" x="330.3" y="1253" font-size="11">2.70×</text>
<rect x="150" y="1258" width="171.5" height="13" rx="2" fill="#3fb950"><title>TinyGo wasm: 33.4 ms</title></rect>
<text class="t" x="325.5" y="1269" font-size="11">2.51×</text>
<text class="t" x="140" y="1329.5" text-anchor="end">Sprintf</text>
<rect x="150" y="1287" width="58.7" height="13" rx="2" fill="#8c959f"><title>Hand-written JS: 11.6 ms</title></rect>
<text class="t" x="212.7" y="1298" font-size="11">0.48×</text>
<rect x="150" y="1303" width="82.4" height="13" rx="2" fill="#2f81f7"><title>goesm: 16.5 ms</title></rect>
<text class="t" x="236.4" y="1314" font-size="11">0.67×</text>
<rect x="150" y="1319" width="408.2" height="13" rx="2" fill="#d29922"><title>GopherJS: 2020 ms</title></rect>
<text class="t" x="562.2" y="1330" font-size="11">82.8×</text>
<rect x="150" y="1335" width="187.1" height="13" rx="2" fill="#a371f7"><title>Go wasm: 77.3 ms</title></rect>
<text class="t" x="341.1" y="1346" font-size="11">3.17×</text>
<rect x="150" y="1351" width="167.8" height="13" rx="2" fill="#3fb950"><title>TinyGo wasm: 58.1 ms</title></rect>
<text class="t" x="321.8" y="1362" font-size="11">2.38×</text>
<text class="t" x="140" y="1422.5" text-anchor="end">Channels</text>
<text class="m" x="154" y="1391" font-size="11">—</text>
<rect x="150" y="1396" width="87.4" height="13" rx="2" fill="#2f81f7"><title>goesm: 91.0 ms</title></rect>
<text class="t" x="241.4" y="1407" font-size="11">0.73×</text>
<rect x="150" y="1412" width="204.4" height="13" rx="2" fill="#d29922"><title>GopherJS: 512 ms</title></rect>
<text class="t" x="358.4" y="1423" font-size="11">4.09×</text>
<rect x="150" y="1428" width="174.6" height="13" rx="2" fill="#a371f7"><title>Go wasm: 330 ms</title></rect>
<text class="t" x="328.6" y="1439" font-size="11">2.63×</text>
<rect x="150" y="1444" width="64.1" height="13" rx="2" fill="#3fb950"><title>TinyGo wasm: 64.5 ms</title></rect>
<text class="t" x="218.1" y="1455" font-size="11">0.52×</text>
<text class="t" x="140" y="1515.5" text-anchor="end">Parallel</text>
<rect x="150" y="1473" width="216.3" height="13" rx="2" fill="#8c959f"><title>Hand-written JS: 42.5 ms</title></rect>
<text class="t" x="370.3" y="1484" font-size="11">4.87×</text>
<rect x="150" y="1489" width="199.5" height="13" rx="2" fill="#2f81f7"><title>goesm: 33.1 ms</title></rect>
<text class="t" x="353.5" y="1500" font-size="11">3.80×</text>
<rect x="150" y="1505" width="240.1" height="13" rx="2" fill="#d29922"><title>GopherJS: 60.3 ms</title></rect>
<text class="t" x="394.1" y="1516" font-size="11">6.92×</text>
<rect x="150" y="1521" width="224.0" height="13" rx="2" fill="#a371f7"><title>Go wasm: 47.6 ms</title></rect>
<text class="t" x="378.0" y="1532" font-size="11">5.46×</text>
<rect x="150" y="1537" width="131.6" height="13" rx="2" fill="#3fb950"><title>TinyGo wasm: 12.2 ms</title></rect>
<text class="t" x="285.6" y="1548" font-size="11">1.40×</text>
<text class="t" x="140" y="1608.5" text-anchor="end">Rand64</text>
<rect x="150" y="1566" width="254.5" height="13" rx="2" fill="#8c959f"><title>Hand-written JS: 24.0 ms</title></rect>
<text class="t" x="408.5" y="1577" font-size="11">8.56×</text>
<rect x="150" y="1582" width="370.9" height="13" rx="2" fill="#2f81f7"><title>goesm: 134 ms</title></rect>
<text class="t" x="524.9" y="1593" font-size="11">47.7×</text>
<rect x="150" y="1598" width="389.8" height="13" rx="2" fill="#d29922"><title>GopherJS: 177 ms</title></rect>
<text class="t" x="543.8" y="1609" font-size="11">63.1×</text>
<rect x="150" y="1614" width="126.6" height="13" rx="2" fill="#a371f7"><title>Go wasm: 3.63 ms</title></rect>
<text class="t" x="280.6" y="1625" font-size="11">1.30×</text>
<rect x="150" y="1630" width="94.2" height="13" rx="2" fill="#3fb950"><title>TinyGo wasm: 2.25 ms</title></rect>
<text class="t" x="248.2" y="1641" font-size="11">0.80×</text>
<text class="t" x="140" y="1701.5" text-anchor="end">MaybeBlocking</text>
<rect x="150" y="1659" width="74.1" height="13" rx="2" fill="#8c959f"><title>Hand-written JS: 0.97 ms</title></rect>
<text class="t" x="228.1" y="1670" font-size="11">0.60×</text>
<rect x="150" y="1675" width="183.6" height="13" rx="2" fill="#2f81f7"><title>goesm: 4.90 ms</title></rect>
<text class="t" x="337.6" y="1686" font-size="11">3.01×</text>
<rect x="150" y="1691" width="140.8" height="13" rx="2" fill="#d29922"><title>GopherJS: 2.60 ms</title></rect>
<text class="t" x="294.8" y="1702" font-size="11">1.60×</text>
<rect x="150" y="1707" width="141.1" height="13" rx="2" fill="#a371f7"><title>Go wasm: 2.62 ms</title></rect>
<text class="t" x="295.1" y="1718" font-size="11">1.61×</text>
<rect x="150" y="1723" width="24.8" height="13" rx="2" fill="#3fb950"><title>TinyGo wasm: 0.47 ms</title></rect>
<text class="t" x="178.8" y="1734" font-size="11">0.29×</text>
<text class="t" x="140" y="1794.5" text-anchor="end">Pull</text>
<rect x="150" y="1752" width="18.9" height="13" rx="2" fill="#8c959f"><title>Hand-written JS: 1.17 ms</title></rect>
<text class="t" x="172.9" y="1763" font-size="11">0.26×</text>
<rect x="150" y="1768" width="296.8" height="13" rx="2" fill="#2f81f7"><title>goesm: 70.7 ms</title></rect>
<text class="t" x="450.8" y="1779" font-size="11">16.0×</text>
<text class="m" x="154" y="1795" font-size="11">—</text>
<rect x="150" y="1800" width="181.7" height="13" rx="2" fill="#a371f7"><title>Go wasm: 12.9 ms</title></rect>
<text class="t" x="335.7" y="1811" font-size="11">2.92×</text>
<rect x="150" y="1816" width="222.5" height="13" rx="2" fill="#3fb950"><title>TinyGo wasm: 23.6 ms</title></rect>
<text class="t" x="376.5" y="1827" font-size="11">5.34×</text>
<text class="t" x="140" y="1887.5" text-anchor="end">RSASign</text>
<rect x="150" y="1845" width="77.0" height="13" rx="2" fill="#8c959f"><title>Hand-written JS: 3.80 ms</title></rect>
<text class="t" x="231.0" y="1856" font-size="11">0.62×</text>
<rect x="150" y="1861" width="380.5" height="13" rx="2" fill="#2f81f7"><title>goesm: 335 ms</title></rect>
<text class="t" x="534.5" y="1872" font-size="11">55.0×</text>
<rect x="150" y="1877" width="501.2" height="13" rx="2" fill="#d29922"><title>GopherJS: 1992 ms</title></rect>
<text class="t" x="655.2" y="1888" font-size="11">327×</text>
<rect x="150" y="1893" width="222.9" height="13" rx="2" fill="#a371f7"><title>Go wasm: 32.7 ms</title></rect>
<text class="t" x="376.9" y="1904" font-size="11">5.37×</text>
<rect x="150" y="1909" width="253.4" height="13" rx="2" fill="#3fb950"><title>TinyGo wasm: 51.3 ms</title></rect>
<text class="t" x="407.4" y="1920" font-size="11">8.42×</text>
<text class="t" x="140" y="1980.5" text-anchor="end">Upper</text>
<rect x="150" y="1938" width="44.6" height="13" rx="2" fill="#8c959f"><title>Hand-written JS: 72.0 ns</title></rect>
<text class="t" x="198.6" y="1949" font-size="11">0.39×</text>
<rect x="150" y="1954" width="113.1" height="13" rx="2" fill="#2f81f7"><title>goesm: 198 ns</title></rect>
<text class="t" x="267.1" y="1965" font-size="11">1.06×</text>
<rect x="150" y="1970" width="429.6" height="13" rx="2" fill="#d29922"><title>GopherJS: 21159 ns</title></rect>
<text class="t" x="583.6" y="1981" font-size="11">114×</text>
<rect x="150" y="1986" width="250.9" height="13" rx="2" fill="#a371f7"><title>Go wasm: 1513 ns</title></rect>
<text class="t" x="404.9" y="1997" font-size="11">8.12×</text>
<rect x="150" y="2002" width="254.8" height="13" rx="2" fill="#3fb950"><title>TinyGo wasm: 1604 ns</title></rect>
<text class="t" x="408.8" y="2013" font-size="11">8.61×</text>
<text class="t" x="140" y="2073.5" text-anchor="end">Handle</text>
<rect x="150" y="2031" width="49.3" height="13" rx="2" fill="#8c959f"><title>Hand-written JS: 2010 ns</title></rect>
<text class="t" x="203.3" y="2042" font-size="11">0.41×</text>
<rect x="150" y="2047" width="78.6" height="13" rx="2" fill="#2f81f7"><title>goesm: 3095 ns</title></rect>
<text class="t" x="232.6" y="2058" font-size="11">0.64×</text>
<rect x="150" y="2063" width="433.4" height="13" rx="2" fill="#d29922"><title>GopherJS: 582772 ns</title></rect>
<text class="t" x="587.4" y="2074" font-size="11">120×</text>
<rect x="150" y="2079" width="230.9" height="13" rx="2" fill="#a371f7"><title>Go wasm: 29347 ns</title></rect>
<text class="t" x="384.9" y="2090" font-size="11">6.05×</text>
<rect x="150" y="2095" width="207.9" height="13" rx="2" fill="#3fb950"><title>TinyGo wasm: 20886 ns</title></rect>
<text class="t" x="361.9" y="2106" font-size="11">4.30×</text>
<line class="r" x1="259.0" y1="72" x2="259.0" y2="2112" stroke-dasharray="4 3" stroke-width="1.2"/>
<text class="t" x="259.0" y="2140" text-anchor="middle" font-size="11">native Go</text>
</svg>
