<svg xmlns="http://www.w3.org/2000/svg" width="760" height="377" viewBox="0 0 760 377" font-family="-apple-system, 'Segoe UI', Helvetica, Arial, 'Hiragino Sans', 'Noto Sans CJK JP', 'Yu Gothic', sans-serif" font-size="12">
<style>.t{fill:#1f2328}.m{fill:#59636e}.g{stroke:#d1d9e0}.r{stroke:#1f2328}@media (prefers-color-scheme:dark){.t{fill:#f0f6fc}.m{fill:#9198a1}.g{stroke:#3d444d}.r{stroke:#f0f6fc}}</style>
<text class="t" x="0" y="18" font-size="15" font-weight="600">Slowdown vs native Go (geometric mean, log scale, shorter is faster)</text>
<rect x="0" y="50" width="11" height="11" rx="2" fill="#8c959f"/>
<text class="t" x="16" y="60">Hand-written JS</text>
<rect x="139" y="50" width="11" height="11" rx="2" fill="#2f81f7"/>
<text class="t" x="155" y="60">goesm</text>
<rect x="208" y="50" width="11" height="11" rx="2" fill="#d29922"/>
<text class="t" x="224" y="60">GopherJS</text>
<rect x="298" y="50" width="11" height="11" rx="2" fill="#a371f7"/>
<text class="t" x="314" y="60">Go wasm</text>
<rect x="381" y="50" width="11" height="11" rx="2" fill="#3fb950"/>
<text class="t" x="397" y="60">TinyGo wasm</text>
<line class="g" x1="150.0" y1="74" x2="150.0" y2="345"/>
<text class="m" x="150.0" y="359" text-anchor="middle">0.50×</text>
<line class="g" x1="249.6" y1="74" x2="249.6" y2="345"/>
<text class="m" x="249.6" y="359" text-anchor="middle">1.00×</text>
<line class="g" x1="349.2" y1="74" x2="349.2" y2="345"/>
<text class="m" x="349.2" y="359" text-anchor="middle">2.00×</text>
<line class="g" x1="480.8" y1="74" x2="480.8" y2="345"/>
<text class="m" x="480.8" y="359" text-anchor="middle">5.00×</text>
<line class="g" x1="580.4" y1="74" x2="580.4" y2="345"/>
<text class="m" x="580.4" y="359" text-anchor="middle">10.0×</text>
<line class="g" x1="680.0" y1="74" x2="680.0" y2="345"/>
<text class="m" x="680.0" y="359" text-anchor="middle">20.0×</text>
<text class="t" x="140" y="120.5" text-anchor="end">Node.js v26.10.0</text>
<rect x="150" y="78" width="94.1" height="13" rx="2" fill="#8c959f"><title>1.0×</title></rect>
<text class="t" x="248.1" y="89" font-size="11">1.0×</text>
<rect x="150" y="94" width="286.8" height="13" rx="2" fill="#2f81f7"><title>3.7×</title></rect>
<text class="t" x="440.8" y="105" font-size="11">3.7×</text>
<rect x="150" y="110" width="444.1" height="13" rx="2" fill="#d29922"><title>11.0×</title></rect>
<text class="t" x="598.1" y="121" font-size="11">11.0×</text>
<rect x="150" y="126" width="254.2" height="13" rx="2" fill="#a371f7"><title>2.9×</title></rect>
<text class="t" x="408.2" y="137" font-size="11">2.9×</text>
<rect x="150" y="142" width="174.8" height="13" rx="2" fill="#3fb950"><title>1.7×</title></rect>
<text class="t" x="328.8" y="153" font-size="11">1.7×</text>
<text class="t" x="140" y="213.5" text-anchor="end">Bun 1.4.2</text>
<rect x="150" y="171" width="145.1" height="13" rx="2" fill="#8c959f"><title>1.4×</title></rect>
<text class="t" x="299.1" y="182" font-size="11">1.4×</text>
<rect x="150" y="187" width="309.8" height="13" rx="2" fill="#2f81f7"><title>4.3×</title></rect>
<text class="t" x="463.8" y="198" font-size="11">4.3×</text>
<rect x="150" y="203" width="409.9" height="13" rx="2" fill="#d29922"><title>8.7×</title></rect>
<text class="t" x="563.9" y="214" font-size="11">8.7×</text>
<rect x="150" y="219" width="235.9" height="13" rx="2" fill="#a371f7"><title>2.6×</title></rect>
<text class="t" x="389.9" y="230" font-size="11">2.6×</text>
<rect x="150" y="235" width="189.1" height="13" rx="2" fill="#3fb950"><title>1.9×</title></rect>
<text class="t" x="343.1" y="246" font-size="11">1.9×</text>
<text class="t" x="140" y="306.5" text-anchor="end">Chromium 141.0.7390.37</text>
<rect x="150" y="264" width="84.9" height="13" rx="2" fill="#8c959f"><title>0.9×</title></rect>
<text class="t" x="238.9" y="275" font-size="11">0.9×</text>
<rect x="150" y="280" width="271.3" height="13" rx="2" fill="#2f81f7"><title>3.3×</title></rect>
<text class="t" x="425.3" y="291" font-size="11">3.3×</text>
<rect x="150" y="296" width="415.5" height="13" rx="2" fill="#d29922"><title>9.0×</title></rect>
<text class="t" x="569.5" y="307" font-size="11">9.0×</text>
<rect x="150" y="312" width="259.1" height="13" rx="2" fill="#a371f7"><title>3.0×</title></rect>
<text class="t" x="413.1" y="323" font-size="11">3.0×</text>
<rect x="150" y="328" width="187.1" height="13" rx="2" fill="#3fb950"><title>1.8×</title></rect>
<text class="t" x="341.1" y="339" font-size="11">1.8×</text>
<line class="r" x1="249.6" y1="72" x2="249.6" y2="345" stroke-dasharray="4 3" stroke-width="1.2"/>
<text class="t" x="249.6" y="373" text-anchor="middle" font-size="11">native Go</text>
</svg>
