<svg xmlns="http://www.w3.org/2000/svg" width="760" height="377" viewBox="0 0 760 377" font-family="-apple-system, 'Segoe UI', Helvetica, Arial, 'Hiragino Sans', 'Noto Sans CJK JP', 'Yu Gothic', sans-serif" font-size="12">
<style>.t{fill:#1f2328}.m{fill:#59636e}.g{stroke:#d1d9e0}.r{stroke:#1f2328}@media (prefers-color-scheme:dark){.t{fill:#f0f6fc}.m{fill:#9198a1}.g{stroke:#3d444d}.r{stroke:#f0f6fc}}</style>
<text class="t" x="0" y="18" font-size="15" font-weight="600">Total ms to run every kernel once (log scale, shorter is faster)</text>
<text class="m" x="0" y="37">* without the kernels the implementation lacks</text>
<rect x="0" y="50" width="11" height="11" rx="2" fill="#8c959f"/>
<text class="t" x="16" y="60">Hand-written JS</text>
<rect x="139" y="50" width="11" height="11" rx="2" fill="#2f81f7"/>
<text class="t" x="155" y="60">goesm</text>
<rect x="208" y="50" width="11" height="11" rx="2" fill="#d29922"/>
<text class="t" x="224" y="60">GopherJS</text>
<rect x="298" y="50" width="11" height="11" rx="2" fill="#a371f7"/>
<text class="t" x="314" y="60">Go wasm</text>
<rect x="381" y="50" width="11" height="11" rx="2" fill="#3fb950"/>
<text class="t" x="397" y="60">TinyGo wasm</text>
<line class="g" x1="150.0" y1="74" x2="150.0" y2="345"/>
<text class="m" x="150.0" y="359" text-anchor="middle">200</text>
<line class="g" x1="255.5" y1="74" x2="255.5" y2="345"/>
<text class="m" x="255.5" y="359" text-anchor="middle">500</text>
<line class="g" x1="335.2" y1="74" x2="335.2" y2="345"/>
<text class="m" x="335.2" y="359" text-anchor="middle">1000</text>
<line class="g" x1="415.0" y1="74" x2="415.0" y2="345"/>
<text class="m" x="415.0" y="359" text-anchor="middle">2000</text>
<line class="g" x1="520.5" y1="74" x2="520.5" y2="345"/>
<text class="m" x="520.5" y="359" text-anchor="middle">5000</text>
<line class="g" x1="600.2" y1="74" x2="600.2" y2="345"/>
<text class="m" x="600.2" y="359" text-anchor="middle">10000</text>
<line class="g" x1="680.0" y1="74" x2="680.0" y2="345"/>
<text class="m" x="680.0" y="359" text-anchor="middle">20000</text>
<text class="t" x="140" y="120.5" text-anchor="end">Node.js v26.10.0</text>
<rect x="150" y="78" width="51.7" height="13" rx="2" fill="#8c959f"><title>314*</title></rect>
<text class="t" x="205.7" y="89" font-size="11">314*</text>
<rect x="150" y="94" width="269.9" height="13" rx="2" fill="#2f81f7"><title>2086</title></rect>
<text class="t" x="423.9" y="105" font-size="11">2086</text>
<rect x="150" y="110" width="457.5" height="13" rx="2" fill="#d29922"><title>10649</title></rect>
<text class="t" x="611.5" y="121" font-size="11">10649</text>
<rect x="150" y="126" width="223.8" height="13" rx="2" fill="#a371f7"><title>1398</title></rect>
<text class="t" x="377.8" y="137" font-size="11">1398</text>
<rect x="150" y="142" width="160.5" height="13" rx="2" fill="#3fb950"><title>806</title></rect>
<text class="t" x="314.5" y="153" font-size="11">806</text>
<text class="t" x="140" y="213.5" text-anchor="end">Bun 1.4.2</text>
<rect x="150" y="171" width="206.1" height="13" rx="2" fill="#8c959f"><title>1198*</title></rect>
<text class="t" x="360.1" y="182" font-size="11">1198*</text>
<rect x="150" y="187" width="312.1" height="13" rx="2" fill="#2f81f7"><title>3011</title></rect>
<text class="t" x="466.1" y="198" font-size="11">3011</text>
<rect x="150" y="203" width="437.8" height="13" rx="2" fill="#d29922"><title>8978</title></rect>
<text class="t" x="591.8" y="214" font-size="11">8978</text>
<rect x="150" y="219" width="209.2" height="13" rx="2" fill="#a371f7"><title>1231</title></rect>
<text class="t" x="363.2" y="230" font-size="11">1231</text>
<rect x="150" y="235" width="177.5" height="13" rx="2" fill="#3fb950"><title>935</title></rect>
<text class="t" x="331.5" y="246" font-size="11">935</text>
<text class="t" x="140" y="306.5" text-anchor="end">Chromium 141.0.7390.37</text>
<rect x="150" y="264" width="37.8" height="13" rx="2" fill="#8c959f"><title>278*</title></rect>
<text class="t" x="191.8" y="275" font-size="11">278*</text>
<rect x="150" y="280" width="251.9" height="13" rx="2" fill="#2f81f7"><title>1784</title></rect>
<text class="t" x="405.9" y="291" font-size="11">1784</text>
<rect x="150" y="296" width="436.9" height="13" rx="2" fill="#d29922"><title>8909</title></rect>
<text class="t" x="590.9" y="307" font-size="11">8909</text>
<rect x="150" y="312" width="234.1" height="13" rx="2" fill="#a371f7"><title>1530</title></rect>
<text class="t" x="388.1" y="323" font-size="11">1530</text>
<rect x="150" y="328" width="178.7" height="13" rx="2" fill="#3fb950"><title>945</title></rect>
<text class="t" x="332.7" y="339" font-size="11">945</text>
<line class="r" x1="228.1" y1="72" x2="228.1" y2="345" stroke-dasharray="4 3" stroke-width="1.2"/>
<text class="t" x="228.1" y="373" text-anchor="middle" font-size="11">native Go 394*</text>
</svg>
